<svg height="512pt" viewBox="0 -59 512 511" width="512pt" xmlns="http://www.w3.org/2000/svg"><path d="m151 151.5h-61v-151h-90v392h90v-151h61v151h90v-392h-90zm30-121h30v332h-30v-151h-121v151h-30v-332h30v151h121zm0 0"/><path d="m392 .5h-121v392h121c66.167969 0 120-53.832031 120-120v-152c0-66.167969-53.832031-120-120-120zm90 272c0 49.625-40.375 90-90 90h-91v-332h91c49.625 0 90 40.375 90 90zm0 0"/><path d="m392 60.5h-61v272h61c33.085938 0 60-26.914062 60-60v-152c0-33.085938-26.914062-60-60-60zm30 212c0 16.542969-13.457031 30-30 30h-31v-212h31c16.542969 0 30 13.457031 30 30zm0 0"/></svg>