<svg id="Capa_1" enable-background="new 0 0 512 512" height="512" viewBox="0 0 512 512" width="512" xmlns="http://www.w3.org/2000/svg"><g><g><g><g><path d="m393.531 482.869v-408.95c0-11.946-9.684-21.631-21.63-21.631h-249.095c-11.946 0-21.631 9.685-21.631 21.631v408.95c0 11.947 9.685 21.631 21.631 21.631h249.094c11.946 0 21.631-9.685 21.631-21.631z" fill="#f4e066"/><path d="m430.184 52.287h-63.286c11.946 0 21.631 9.685 21.631 21.631v408.95c0 11.947-9.685 21.631-21.631 21.631h63.286c11.946 0 21.631-9.685 21.631-21.631v-408.949c0-11.947-9.685-21.632-21.631-21.632z" fill="#efd133"/><path d="m330.91 7.5h-180.477c-3.221 0-6.36.733-9.215 2.087-1.207.572-1.948 1.821-1.948 3.156v56.612c0 9.516-7.714 17.23-17.229 17.23h-56.613c-1.336 0-2.584.741-3.156 1.948-1.354 2.856-2.087 5.994-2.087 9.215v340.334c0 11.947 9.685 21.631 21.631 21.631h249.095c11.946-.001 21.63-9.685 21.63-21.631v-408.951c0-11.946-9.685-21.631-21.631-21.631z" fill="#f7f4f7"/><path d="m389.194 7.5h-63.286c11.947 0 21.631 9.684 21.631 21.631v408.95c0 11.947-9.684 21.631-21.631 21.631h63.286c11.947 0 21.631-9.685 21.631-21.631v-408.95c0-11.947-9.684-21.631-21.631-21.631z" fill="#edeaed"/><path d="m141.473 9.469c-2.332 1.063-4.489 2.52-6.336 4.367l-68.617 68.616c-1.847 1.847-3.304 4.003-4.367 6.336h62.089c9.516 0 17.229-7.714 17.229-17.229v-62.09z" fill="#c1bcc4"/></g><path d="m364.817 101.045h-107.809c-3.051 0-5.524-2.473-5.524-5.524v-39.962c0-3.051 2.473-5.524 5.524-5.524h107.809c3.051 0 5.523 2.473 5.523 5.524v39.962c0 3.051-2.473 5.524-5.523 5.524z" fill="#c9e0fd"/><path d="m364.817 50.036h-17.277v51.009h17.277c3.051 0 5.524-2.473 5.524-5.524v-39.962c-.001-3.05-2.474-5.523-5.524-5.523z" fill="#bcd6f9"/></g></g><g><g><path d="m115.486 181.321c0 4.143 3.359 7.502 7.502 7.502h237.014c4.144 0 7.502-3.359 7.502-7.502s-3.359-7.502-7.502-7.502h-237.014c-4.144-.001-7.502 3.358-7.502 7.502z"/><path d="m122.988 248.342h237.014c4.144 0 7.502-3.359 7.502-7.502s-3.359-7.502-7.502-7.502h-237.014c-4.144 0-7.502 3.359-7.502 7.502s3.358 7.502 7.502 7.502z"/><path d="m122.988 307.862h237.014c4.144 0 7.502-3.359 7.502-7.502s-3.359-7.502-7.502-7.502h-237.014c-4.144 0-7.502 3.359-7.502 7.502s3.358 7.502 7.502 7.502z"/><path d="m122.988 367.381h118.507c4.144 0 7.502-3.359 7.502-7.502s-3.359-7.502-7.502-7.502h-118.507c-4.144 0-7.502 3.359-7.502 7.502s3.358 7.502 7.502 7.502z"/><path d="m364.816 108.549c7.182 0 13.026-5.843 13.026-13.026v-39.962c0-7.183-5.844-13.026-13.026-13.026h-107.808c-7.182 0-13.026 5.843-13.026 13.026v39.962c0 7.183 5.844 13.026 13.026 13.026zm-105.829-51.009h103.849v36.004h-103.849z"/><path d="m430.182 44.787h-11.856v-15.654c0-16.064-13.07-29.133-29.133-29.133h-238.759c-7.782 0-15.099 3.03-20.6 8.533l-68.616 68.616c-5.504 5.502-8.534 12.819-8.534 20.6v66.073c0 4.143 3.359 7.502 7.502 7.502s7.502-3.359 7.502-7.502v-66.073c0-.49.027-.976.076-1.457h56.479c13.637 0 24.732-11.095 24.732-24.732v-56.479c.481-.049.967-.076 1.458-.076h238.759c7.791 0 14.129 6.338 14.129 14.129v313.2c0 4.143 3.359 7.502 7.502 7.502s7.502-3.359 7.502-7.502v-282.542h11.856c7.791 0 14.129 6.338 14.129 14.129v408.946c0 7.791-6.338 14.129-14.129 14.129h-307.374c-7.791 0-14.129-6.338-14.129-14.129v-15.654h280.514c16.064 0 29.133-13.069 29.133-29.133v-60.665c0-4.143-3.359-7.502-7.502-7.502s-7.502 3.359-7.502 7.502v60.665c0 7.791-6.338 14.129-14.129 14.129h-307.374c-7.791 0-14.129-6.338-14.129-14.129v-239.184c0-4.143-3.359-7.502-7.502-7.502s-7.502 3.359-7.502 7.502v239.184c0 16.064 13.07 29.133 29.133 29.133h11.856v15.654c0 16.064 13.07 29.133 29.133 29.133h307.375c16.064 0 29.133-13.069 29.133-29.133v-408.947c.001-16.064-13.069-29.133-29.133-29.133zm-305.938 36.5h-45.944l55.671-55.672v45.945c0 5.363-4.364 9.727-9.727 9.727z"/></g></g></g></svg>