<svg height="480pt" viewBox="0 -44 480.02014 480" width="480pt" xmlns="http://www.w3.org/2000/svg"><path d="m354.496094 322.257812-281.300782 61.75-65.179687-296.929687 281.300781-61.75zm0 0" fill="#f3f3f3"/><path d="m309.523438 266.609375-218.789063 48.027344-44.597656-203.164063 218.792969-48.027344zm0 0" fill="#ffb1b5"/><path d="m174.90625 50.441406-62.890625 286.496094 87.808594 19.28125 154.671875-33.960938-56.121094-255.648437-98.550781-21.632813zm0 0" fill="#ebebeb"/><path d="m190.710938 25.332031 281.300781 61.753907-65.179688 296.929687-281.300781-61.75zm0 0" fill="#f9f9f9"/><path d="m215.109375 63.449219 218.789063 48.027343-44.597657 203.164063-218.789062-48.027344zm0 0" fill="#c0f5f9"/><path d="m190.714844 25.328125-65.179688 296.929687 26.195313 5.753907h248.285156v-256.738281zm0 0" fill="#f0f0f0"/><path d="m400.015625 104.035156-184.902344-40.585937-44.601562 203.160156 218.792969 48.023437 10.710937-48.796874zm0 0" fill="#b8eaee"/><path d="m96.015625 8.011719h288v304h-288zm0 0" fill="#f9f9f9"/><path d="m128.015625 40.011719h224v208h-224zm0 0" fill="#aae5c8"/><path d="m312.015625 144.011719-104 104h144v-64zm0 0" fill="#cdcdcd"/><path d="m280.015625 104.011719c0 17.671875-14.324219 32-32 32-17.671875 0-32-14.328125-32-32 0-17.675781 14.328125-32 32-32 17.675781 0 32 14.324219 32 32zm0 0" fill="#fbb540"/><path d="m208.015625 248.011719h112l-61.085937-50.914063zm0 0" fill="#b9b9b9"/><path d="m128.015625 248.011719 80-80 96 80zm0 0" fill="#ebebeb"/><path d="m352.015625 32.011719h-224c-4.417969 0-8 3.578125-8 8v208c0 .101562.058594.191406.058594.292969.019531.949218.207031 1.886718.550781 2.769531 0 .070312.089844.121093.121094.191406.351562.78125.835937 1.496094 1.421875 2.121094.675781.664062 1.445312 1.230469 2.28125 1.679687.246093.132813.5.253906.757812.359375.894531.363281 1.847657.558594 2.808594.585938h224c4.417969 0 8-3.582031 8-8v-208c0-4.421875-3.582031-8-8-8zm-8 16v116.6875l-26.335937-26.34375c-1.5-1.503907-3.535157-2.347657-5.660157-2.347657-2.121093 0-4.15625.84375-5.660156 2.347657l-55.199219 55.199219-38.023437-31.695313c-3.179688-2.648437-7.851563-2.433594-10.777344.496094l-66.34375 66.34375v-180.6875zm-136 192h-60.6875l61.183594-61.175781 37.417969 31.199218v.046875l.128906.078125 35.863281 29.851563zm136 0h-37.101563l-43.410156-36.175781 48.511719-48.515626 32 32zm0 0"/><path d="m473.730469 79.210938-81.714844-17.882813v-53.316406c0-4.421875-3.582031-8.0000002-8-8.0000002h-288c-4.417969 0-8 3.5781252-8 8.0000002v53.316406l-81.710937 17.882813c-2.089844.453124-3.910157 1.722656-5.054688 3.523437-1.148438 1.804687-1.523438 3.992187-1.050781 6.074219l65.203125 296.960937c.824218 3.652344 4.070312 6.246094 7.816406 6.242188.574219-.003907 1.148438-.066407 1.710938-.1875l165.085937-36.253907 165.128906 36.253907c.550781.121093 1.109375.183593 1.671875.1875 3.757813 0 7.007813-2.613281 7.816406-6.28125l65.199219-296.960938c.457031-2.074219.070313-4.246093-1.074219-6.03125-1.144531-1.789062-2.953124-3.050781-5.027343-3.503906zm-81.714844 31.199218 32.394531 7.113282-32.394531 147.460937zm-288-94.398437h272v288h-272zm-16 248.972656-32.390625-147.4375 32.390625-7.136719zm-8.703125 109.496094-61.769531-281.328125 70.472656-15.445313v16.34375l-43.640625 9.597657c-4.316406.949218-7.046875 5.21875-6.09375 9.539062l44.640625 203.199219c.808594 3.667969 4.058594 6.28125 7.816406 6.28125.578125-.003907 1.152344-.066407 1.71875-.1875l11.144531-2.46875h14.230469l-.109375.527343c-.949218 4.316407 1.785156 8.582032 6.101563 9.527344l78.863281 17.3125zm321.410156 0-159.203125-34.957031h-.085937l-88.792969-19.511719h223.792969l11.144531 2.453125c.5625.121094 1.140625.183594 1.71875.183594 3.757813.003906 7.007813-2.609376 7.816406-6.277344l44.640625-203.199219c.949219-4.320313-1.78125-8.589844-6.097656-9.539063l-43.640625-9.582031v-16.34375l70.472656 15.445313zm0 0"/><path d="m248.015625 144.011719c16.652344.070312 31.589844-10.226563 37.453125-25.8125 5.859375-15.585938 1.40625-33.171875-11.164062-44.09375-.128907-.152344-.175782-.335938-.3125-.472657-.402344-.332031-.839844-.621093-1.304688-.863281-6.992188-5.632812-15.691406-8.722656-24.671875-8.757812-22.089844 0-40 17.90625-40 40 0 22.089843 17.910156 40 40 40zm0-64c13.257813 0 24 10.742187 24 24 0 13.253906-10.742187 24-24 24-13.253906 0-24-10.746094-24-24 0-13.257813 10.746094-24 24-24zm0 0"/></svg>