<svg id="Layer_1" enable-background="new 0 0 512 512" height="512" viewBox="0 0 512 512" width="512" xmlns="http://www.w3.org/2000/svg"><g><g id="XMLID_27_"><g><g id="XMLID_1115_"><g id="XMLID_1116_"><g id="XMLID_1117_"><g id="XMLID_1119_"><g id="XMLID_1122_"><g id="XMLID_1123_"><g id="XMLID_1124_"><g id="XMLID_1125_"><g id="XMLID_1126_"><g id="XMLID_1127_"><g id="XMLID_1128_"><g id="XMLID_1129_"><g id="XMLID_1130_"><g><path d="m512 256c0 141.38-114.62 256-256 256-38.5 0-75.01-8.5-107.77-23.73-87.53-40.68-148.23-129.39-148.23-232.27 0-141.38 114.62-256 256-256 105 0 195.25 63.23 234.73 153.68 13.68 31.34 21.27 65.94 21.27 102.32z" fill="#fedd55"/></g></g></g></g></g></g></g></g></g></g></g></g></g></g></g></g><g><path d="m512 256c0-23.889-3.283-47.009-9.404-68.946l-126.598-126.598-234.584 396.5 45.641 45.641c21.936 6.12 45.056 9.403 68.945 9.403 141.385 0 256-114.615 256-256z" fill="#ffc627"/></g><g><path d="m162.495 82.203h187.01v300.789h-187.01z" fill="#fff"/><path d="m256 82.2h93.5v300.79h-93.5z" fill="#e9edf5"/><g><path d="m351.194 463.658h-190.388c-17.373 0-31.507-14.134-31.507-31.507v-352.302c0-17.373 14.134-31.507 31.507-31.507h190.388c17.373 0 31.507 14.134 31.507 31.507v352.302c0 17.373-14.134 31.507-31.507 31.507zm-183.273-95.52h176.159v-281.175h-176.159z" fill="#436375"/></g><g><g><path d="m351.19 48.34h-95.19v38.62h88.08v281.18h-88.08v95.52h95.19c17.38 0 31.51-14.14 31.51-31.51v-352.3c0-17.37-14.13-31.51-31.51-31.51z" fill="#274a59"/></g></g><g><g><g><path d="m277.019 430.448h-42.039c-7.141 0-12.929-5.789-12.929-12.929v-4.633c0-7.14 5.788-12.929 12.929-12.929h42.039c7.141 0 12.929 5.788 12.929 12.929v4.633c0 7.14-5.788 12.929-12.929 12.929z" fill="#5a7784"/></g></g></g><g><g><g><g><path d="m289.95 412.89v4.63c0 7.14-5.79 12.93-12.93 12.93h-21.02v-30.49h21.02c7.14 0 12.93 5.79 12.93 12.93z" fill="#436375"/></g></g></g></g><g><path d="m309.412 300.341h-106.824v-53.49c0-20.764 16.832-37.596 37.596-37.596h31.632c20.763 0 37.596 16.832 37.596 37.596z" fill="#fa4c4f"/><path d="m309.41 246.851v53.49h-53.41v-91.09h15.82c2.62 0 5.18.27 7.66.78 17.08 3.54 29.93 18.68 29.93 36.82z" fill="#e4186b"/><circle cx="256" cy="186.615" fill="#ffd097" r="36.896"/><g><path d="m292.9 186.615c0 11.46-5.22 21.7-13.42 28.46-6.37 5.27-14.56 8.44-23.48 8.44v-73.8c20.38 0 36.9 16.52 36.9 36.9z" fill="#ffc473"/></g></g></g></g></svg>